#!OML:ASF X:\für Bonn\!DataBase\2005_08_11_Bastian_Final\c3d\Bastian.ASF
:FULLY-SPECIFIED
:DEGREES
92
root 5.43312 15.9905 -3.31403 170.976 80.3173 -176.489
lowerback 53.5222 -8.98079 10.3758
upperback 18.5089 -0.0148068 4.13598
thorax 0.0950806 2.26154 -0.0691387
lowerneck -4.28773 -13.6538 -3.82497
upperneck -7.42927 -17.6977 17.087
head 0.434057 -9.02874 5.13972
rclavicle -7.95139e-015 -3.81667e-014
rhumerus 22.7746 6.82404 -57.1811
rradius 24.181
rwrist -1.23656
rhand -29.6246 -1.13844
rfingers 7.12502
rthumb -2.9549 -31.0977
lclavicle -7.95139e-015 -3.81667e-014
lhumerus 4.42747 -31.0672 75.5642
lradius 63.8647
lwrist 24.4146
lhand -14.7299 -12.3115
lfingers 7.12502
lthumb 11.4252 17.3572
rfemur -30.0746 -1.36445 16.641
rtibia 55.6399
rfoot -13.0108 -2.92721
rtoes -26.5435
lfemur -24.5755 4.86041 -25.1887
ltibia 52.8824
lfoot -5.14047 -10.8849
ltoes 8.40059
93
root 5.43253 15.9328 -3.31377 169.885 80.3316 -177.992
lowerback 54.3059 -9.10109 10.4179
upperback 18.4461 0.0655522 4.12642
thorax -0.0208915 2.31306 -0.0965893
lowerneck -4.27759 -13.6952 -3.78411
upperneck -7.9687 -17.6946 17.2256
head 0.284367 -9.05829 5.19862
rclavicle -2.38542e-014 -1.25632e-013
rhumerus 23.5403 6.41888 -56.6986
rradius 24.0129
rwrist -1.12629
rhand -29.6944 -1.05601
rfingers 7.12502
rthumb -3.02237 -31.0143
lclavicle -2.38542e-014 -1.25632e-013
lhumerus 4.66955 -31.1353 75.1124
lradius 64.8154
lwrist 24.1661
lhand -14.5919 -12.1825
lfingers 7.12502
lthumb 11.5583 17.4788
rfemur -31.0593 -1.32725 16.3898
rtibia 56.5333
rfoot -12.8817 -2.93056
rtoes -27.0115
lfemur -25.5792 4.69496 -25.5338
ltibia 53.8768
lfoot -5.54132 -10.749
ltoes 8.73193
94
root 5.43193 15.8729 -3.3129 168.743 80.3533 -179.523
lowerback 55.1099 -9.23244 10.4738
upperback 18.3902 0.146193 4.09045
thorax -0.122317 2.3702 -0.156998
lowerneck -4.30168 -13.7394 -3.73696
upperneck -8.48729 -17.6965 17.3836
head 0.148343 -9.08847 5.25863
rclavicle -9.54166e-014 -6.99722e-014
rhumerus 24.2894 5.85152 -56.3189
rradius 23.8501
rwrist -0.837294
rhand -29.7508 -0.981343
rfingers 7.12502
rthumb -3.07677 -30.9389
lclavicle -9.54166e-014 -6.99722e-014
lhumerus 4.9563 -31.1673 74.6458
lradius 65.6572
lwrist 23.8491
lhand -14.4001 -12.1833
lfingers 7.12502
lthumb 11.7433 17.4675
rfemur -32.0338 -1.27147 16.1318
rtibia 57.463
rfoot -12.7764 -2.93245
rtoes -27.1645
lfemur -26.5583 4.54056 -25.8789
ltibia 54.8889
lfoot -5.97843 -10.6173
ltoes 8.7424
95
root 5.43153 15.8089 -3.31232 167.473 80.369 -181.233
lowerback 55.875 -9.34433 10.502
upperback 18.2928 0.215499 4.04888
thorax -0.264461 2.41199 -0.211529
lowerneck -4.21376 -13.7765 -3.71661
upperneck -9.00724 -17.6854 17.5893
head 0.000239003 -9.11765 5.34512
rclavicle -9.54166e-014 -3.10104e-014
rhumerus 24.9634 5.21393 -56.0806
rradius 23.7014
rwrist -0.42819
rhand -29.7919 -0.877822
rfingers 7.12502
rthumb -3.11645 -30.8348
lclavicle -9.54166e-014 -3.10104e-014
lhumerus 5.17705 -31.177 74.2012
lradius 66.4104
lwrist 23.4769
lhand -14.3021 -12.1849
lfingers 7.12502
lthumb 11.8378 17.4605
rfemur -33.0826 -1.26274 15.8511
rtibia 58.4131
rfoot -12.7214 -2.92639
rtoes -27.4054
lfemur -27.6038 4.3286 -26.2589
ltibia 55.9257
lfoot -6.43397 -10.4388
ltoes 8.80364
96
root 5.43113 15.7429 -3.31181 166.383 80.4 -182.806
lowerback 56.5679 -9.4484 10.5478
upperback 18.2172 0.288095 4.01376
thorax -0.371907 2.45626 -0.269379
lowerneck -4.14127 -13.7979 -3.61391
upperneck -9.59002 -17.6491 17.6962
head -0.184548 -9.13762 5.39772
rclavicle -9.85972e-014 -6.12257e-014
rhumerus 25.6616 4.59554 -55.8021
rradius 23.562
rwrist -0.0567129
rhand -29.8377 -0.779613
rfingers 7.12502
rthumb -3.16072 -30.7359
lclavicle -9.85972e-014 -6.12257e-014
lhumerus 5.39424 -31.1285 73.794
lradius 67.1078
lwrist 23.1338
lhand -14.2263 -12.1794
lfingers 7.12502
lthumb 11.9109 17.4618
rfemur -34.1992 -1.23801 15.5959
rtibia 59.386
rfoot -12.6682 -2.91701
rtoes -27.3889
lfemur -28.7185 4.15931 -26.6097
ltibia 56.9789
lfoot -6.87791 -10.2904
ltoes 8.83865
97
root 5.42977 15.6767 -3.31121 165.143 80.4182 -184.503
lowerback 57.2687 -9.54984 10.5703
upperback 18.1458 0.355625 3.97801
thorax -0.471987 2.4978 -0.316012
lowerneck -4.07097 -13.8042 -3.41754
upperneck -10.1837 -17.5956 17.6934
head -0.394436 -9.15065 5.40986
rclavicle -5.08889e-014 -5.00937e-014
rhumerus 26.3196 4.00172 -55.5026
rradius 23.4709
rwrist 0.331836
rhand -29.8264 -0.724664
rfingers 7.12502
rthumb -3.14979 -30.6811
lclavicle -5.08889e-014 -5.00937e-014
lhumerus 5.6177 -31.0769 73.4278
lradius 67.7555
lwrist 22.7937
lhand -14.2894 -12.0896
lfingers 7.12502
lthumb 11.85 17.5551
rfemur -35.3022 -1.22102 15.3087
rtibia 60.3699
rfoot -12.6335 -2.89645
rtoes -27.2874
lfemur -29.8099 3.94477 -26.9781
ltibia 58.0447
lfoot -7.34971 -10.1002
ltoes 8.86477
98
root 5.42882 15.6083 -3.31078 164.069 80.4509 -186.078
lowerback 57.9507 -9.63909 10.5918
upperback 18.0351 0.424048 3.9585
thorax -0.611555 2.5299 -0.347447
lowerneck -4.00922 -13.8011 -3.26226
upperneck -10.7007 -17.5393 17.6648
head -0.579682 -9.15648 5.41641
rclavicle 1.27222e-014 3.26007e-014
rhumerus 26.9346 3.57277 -55.1291
rradius 23.4123
rwrist 0.587635
rhand -29.8562 -0.690354
rfingers 7.12502
rthumb -3.17863 -30.6464
lclavicle 1.27222e-014 3.26007e-014
lhumerus 5.69251 -30.9422 73.1853
lradius 68.3191
lwrist 22.38
lhand -14.3904 -11.9503
lfingers 7.12502
lthumb 11.7526 17.6999
rfemur -36.4871 -1.21859 15.0521
rtibia 61.3684
rfoot -12.5667 -2.84183
rtoes -26.9884
lfemur -30.9513 3.72601 -27.3086
ltibia 59.1162
lfoot -7.78819 -9.92707
ltoes 9.12333
99
root 5.42733 15.5386 -3.30898 162.869 80.4865 -187.79
lowerback 58.5935 -9.71186 10.6052
upperback 17.9317 0.492221 3.90691
thorax -0.738126 2.56414 -0.412234
lowerneck -3.84908 -13.7986 -3.04248
upperneck -11.2876 -17.4736 17.671
head -0.804759 -9.16832 5.43633
rclavicle 2.54444e-014 -8.74653e-015
rhumerus 27.5097 3.03204 -54.8685
rradius 23.3237
rwrist 1.00868
rhand -29.924 -0.611732
rfingers 7.12502
rthumb -3.24409 -30.5668
lclavicle 2.54444e-014 -8.74653e-015
lhumerus 5.7828 -30.8263 72.8886
lradius 68.7673
lwrist 22.0102
lhand -14.6138 -11.908
lfingers 7.12502
lthumb 11.5372 17.7544
rfemur -37.7118 -1.18496 14.7692
rtibia 62.3831
rfoot -12.4702 -2.79452
rtoes -26.5829
lfemur -32.1153 3.53636 -27.6587
ltibia 60.1946
lfoot -8.24703 -9.75567
ltoes 9.10649
100
root 5.42525 15.4673 -3.3082 161.626 80.5132 -189.545
lowerback 59.2175 -9.79234 10.6293
upperback 17.83 0.552961 3.84837
thorax -0.857644 2.59627 -0.486736
lowerneck -3.72653 -13.7966 -2.84335
upperneck -11.838 -17.411 17.6993
head -1.00862 -9.1784 5.46062
rclavicle -9.54166e-015 -5.40694e-014
rhumerus 28.1072 2.52075 -54.5708
rradius 23.2141
rwrist 1.33405
rhand -30.0029 -0.508558
rfingers 7.12502
rthumb -3.32027 -30.4624
lclavicle -9.54166e-015 -5.40694e-014
lhumerus 5.84385 -30.7009 72.635
lradius 69.1107
lwrist 21.6796
lhand -14.9394 -11.9187
lfingers 7.12502
lthumb 11.2232 17.7611
rfemur -38.9612 -1.15999 14.4739
rtibia 63.4141
rfoot -12.3887 -2.73229
rtoes -26.1237
lfemur -33.2862 3.32465 -28.0161
ltibia 61.2762
lfoot -8.7136 -9.57461
ltoes 9.08799
101
root 5.42349 15.3944 -3.30705 160.263 80.5497 -191.455
lowerback 59.8021 -9.8359 10.6148
upperback 17.7056 0.613678 3.78563
thorax -1.0026 2.62 -0.553862
lowerneck -3.50604 -13.7767 -2.64272
upperneck -12.4035 -17.3196 17.735
head -1.2351 -9.17948 5.49731
rclavicle -3.18055e-014 1.59028e-015
rhumerus 28.6357 2.19755 -54.1792
rradius 23.1673
rwrist 1.45779
rhand -30.1226 -0.518783
rfingers 7.12502
rthumb -3.43583 -30.4708
lclavicle -3.18055e-014 1.59028e-015
lhumerus 5.85071 -30.5638 72.4025
lradius 69.354
lwrist 21.4728
lhand -15.2979 -11.9854
lfingers 7.12502
lthumb 10.8775 17.7129
rfemur -40.2822 -1.13725 14.155
rtibia 64.4777
rfoot -12.2989 -2.62448
rtoes -25.5126
lfemur -34.5005 3.10177 -28.3877
ltibia 62.3695
lfoot -9.1916 -9.36941
ltoes 8.97545
102
root 5.42141 15.318 -3.30604 159.227 80.597 -193.054
lowerback 60.2968 -9.89037 10.6412
upperback 17.6466 0.677789 3.75111
thorax -1.0666 2.65223 -0.60804
lowerneck -3.38423 -13.7824 -2.52604
upperneck -12.9448 -17.2657 17.8046
head -1.42368 -9.19208 5.54385
rclavicle 6.36111e-014 -2.8625e-014
rhumerus 29.2806 1.84986 -53.7308
rradius 23.0526
rwrist 1.56882
rhand -30.1762 -0.491297
rfingers 7.12502
rthumb -3.48764 -30.4425
lclavicle 6.36111e-014 -2.8625e-014
lhumerus 5.94274 -30.4141 72.1736
lradius 69.5337
lwrist 21.4156
lhand -15.6007 -11.9427
lfingers 7.12502
lthumb 10.5854 17.7707
rfemur -41.6296 -1.12316 13.8954
rtibia 65.555
rfoot -12.2498 -2.53171
rtoes -24.8089
lfemur -35.7572 2.89227 -28.6877
ltibia 63.4779
lfoot -9.61575 -9.19757
ltoes 9.37086
103
root 5.42051 15.24 -3.30507 157.889 80.6075 -194.952
lowerback 60.7613 -9.93561 10.6213
upperback 17.6242 0.724262 3.70968
thorax -1.09109 2.67901 -0.644615
lowerneck -3.38745 -13.784 -2.4048
upperneck -13.4465 -17.2095 17.8963
head -1.57888 -9.19716 5.58454
rclavicle 1.59028e-014 9.46215e-014
rhumerus 29.9567 1.52546 -53.2329
rradius 22.9481
rwrist 1.58942
rhand -30.2308 -0.475362
rfingers 7.12502
rthumb -3.54032 -30.4257
lclavicle 1.59028e-014 9.46215e-014
lhumerus 6.10889 -30.2481 71.9096
lradius 69.6704
lwrist 21.513
lhand -15.7284 -11.7735
lfingers 7.12502
lthumb 10.4621 17.9462
rfemur -42.9871 -1.11409 13.569
rtibia 66.6681
rfoot -12.1857 -2.43562
rtoes -24.0115
lfemur -36.9996 2.67903 -29.0531
ltibia 64.5888
lfoot -10.1041 -9.02971
ltoes 9.32789
